<svg xmlns="http://www.w3.org/2000/svg" xmlns:xlink="http://www.w3.org/1999/xlink" viewBox="0 0 480 108.28" height="40px">
	<defs>
		<style>
			.cls-1{fill:none;}.cls-2{clip-path:url(#clip-path);}.cls-3{fill:#333333;}
		</style>
		<clipPath id="clip-path" transform="translate(-15.68 -202.25)">
			<rect class="cls-1" x="-0.32" y="0.39" width="512" height="512" />
		</clipPath>
	</defs>
	<g class="cls-2">
		<path class="cls-3" d="M15.68,258.94c0-15.82,12.61-28.32,28.76-28.32,9.51,0,17.69,4.54,21.9,11.07a5.2,5.2,0,0,1-4.1,8.4,4.94,4.94,0,0,1-4.09-1.88c-3.21-4-7.63-6.86-13.6-6.86-9.74,0-17,7.53-17,17.59,0,10.29,7.19,17.7,17,17.7,6,0,10.28-2.87,13.6-6.74A4.78,4.78,0,0,1,62.24,268a5.2,5.2,0,0,1,5.2,5.2,4.85,4.85,0,0,1-1,3c-4.54,6.75-12.28,11.17-22,11.17C28.29,287.37,15.68,274.87,15.68,258.94Z" transform="translate(-15.68 -202.25)" />
		<path class="cls-3" d="M74.63,280.59V211.31c0-3.89,2.44-6.78,5.86-6.78s5.76,2.89,5.76,6.78v69.28c0,3.89-2.44,6.78-5.76,6.78S74.63,284.48,74.63,280.59Z" transform="translate(-15.68 -202.25)" />
		<path class="cls-3" d="M151.61,258.94a28.45,28.45,0,0,1-28.87,28.43c-16-.11-28.64-12.61-28.64-28.43s12.61-28.32,28.64-28.32S151.61,243.12,151.61,258.94Zm-45.68.11c0,10.07,7.19,17.59,16.81,17.59s16.93-7.63,16.93-17.59c0-10.17-7.3-17.7-16.81-17.81C113.12,241.35,105.93,248.88,105.93,259.05Z" transform="translate(-15.68 -202.25)" />
		<path class="cls-3" d="M158.8,263.37V236.6a5.76,5.76,0,1,1,11.51,0v27.65c0,7.19,5.08,12.39,12.27,12.39,7,0,11.95-5.2,11.95-12.39V236.6a5.81,5.81,0,1,1,11.61,0v26.77c0,14.16-9.73,24-23.56,24C168.54,287.37,158.8,277.53,158.8,263.37Z" transform="translate(-15.68 -202.25)" />
		<path class="cls-3" d="M269.85,208.51v72.72a5.76,5.76,0,1,1-11.5,0v-2.32c-4,5.33-10.51,8.46-18.36,8.46-15.27,0-26.55-12.51-26.55-29.67s11.28-29.79,26.55-29.79c7.63,0,14,3.13,18.14,8.23V208.51a5.93,5.93,0,0,1,5.86-6.26C267.31,202.25,269.85,204.8,269.85,208.51Zm-11.5,49.19c0-11-6.64-18.66-16.37-18.66s-16.7,7.88-16.7,18.54,7,18.67,16.7,18.67S258.35,268.71,258.35,257.7Z" transform="translate(-15.68 -202.25)" />
		<path class="cls-3" d="M379,304.27v-68a5.76,5.76,0,1,1,11.5,0v2.32c4-5.33,10.51-8.46,18.36-8.46,15.27,0,26.55,12.52,26.55,29.67s-11.28,29.79-26.55,29.79c-7.63,0-14.05-3.13-18.14-8.23v22.91a5.94,5.94,0,0,1-5.86,6.26C381.51,310.53,379,308,379,304.27Zm11.5-44.47c0,11,6.64,18.67,16.37,18.67s16.7-7.89,16.7-18.55-7-18.66-16.7-18.66S390.47,248.79,390.47,259.8Z" transform="translate(-15.68 -202.25)" />
		<path class="cls-3" d="M314.54,280.59c0,2.76-1.22,4.65-3.43,5.53a17,17,0,0,1-7.3,1.25c-12.94,0-20-7.54-20-21.49V240.44h-4.31a5.34,5.34,0,0,1-5.2-5.65c0-3.27,2.32-5.78,5.2-5.78h4.31V213.47c0-3.77,2.54-6.79,5.86-6.79s5.86,2.89,5.86,6.79V229h11.62c3,0,5.2,2.51,5.2,5.78s-2.22,5.65-5.2,5.65H295.51v24.31c0,7.54,3.21,10.68,10.62,10.68,1.33,0,2.32-.12,3.32-.12C312.55,275.31,314.54,277.44,314.54,280.59Z" transform="translate(-15.68 -202.25)" />
		<path class="cls-3" d="M373.38,235.7a5.65,5.65,0,0,1-.55,2.62l-25,51.64c-5.42,11.14-11.61,20.57-21.12,20.57a18.66,18.66,0,0,1-5.2-.66,4.92,4.92,0,0,1-3.54-4.8,5.24,5.24,0,0,1,5.31-5c.88,0,1.55.11,2.21.11,5.09,0,8.63-7,11.28-12.59l2.43-5.13-20.13-44a7.17,7.17,0,0,1-.66-2.73,5.8,5.8,0,0,1,5.75-5.57,5.7,5.7,0,0,1,5.31,3.38l16.26,36,16.7-36a5.91,5.91,0,0,1,5.31-3.38A5.7,5.7,0,0,1,373.38,235.7Z" transform="translate(-15.68 -202.25)" />
		<path class="cls-3" d="M495.68,255.35v.55c0,4-2.54,6.42-6.64,6.42H454.31c1.55,8.74,8.08,14.27,17.7,14.27a21,21,0,0,0,12.72-4.2,5.47,5.47,0,0,1,3-1.11,4.77,4.77,0,0,1,4.86,4.87c0,2-.77,3.32-2.87,4.87a29.6,29.6,0,0,1-18,5.86c-16.81,0-29.2-12.06-29.2-28.32,0-16,12.16-28.43,28-28.43C485,230.13,495.68,240.75,495.68,255.35Zm-41.15-2.1h29.54c-.23-7.86-5.76-13.28-13.94-13.28C462.28,240,456.3,245.28,454.53,253.25Z" transform="translate(-15.68 -202.25)" />
	</g>
</svg>
