<svg xmlns="http://www.w3.org/2000/svg" viewBox="0 0 32 32">
  <defs>
    <style>.cls-1{fill:#3561ed;}.cls-2{fill:#eee;}</style>
  </defs>
  <rect class="cls-1" width="32" height="32" rx="2.4" />
  <path class="cls-2" d="M6,16C6,9.29,10.87,4,17.11,4a9.76,9.76,0,0,1,8.46,4.68A2.37,2.37,0,0,1,26,10a2.12,2.12,0,0,1-2,2.24,1.83,1.83,0,0,1-1.58-.79,6.4,6.4,0,0,0-5.26-2.9c-3.76,0-6.58,3.18-6.58,7.44s2.78,7.48,6.58,7.48a6.53,6.53,0,0,0,5.26-2.85,1.77,1.77,0,0,1,1.58-.8A2.11,2.11,0,0,1,26,22a2.21,2.21,0,0,1-.38,1.26A9.75,9.75,0,0,1,17.11,28C10.87,28,6,22.71,6,16Z" />
</svg>